<mxfile host="app.diagrams.net" modified="2024-03-08T18:10:44.866Z" agent="Mozilla/5.0 (Macintosh; Intel Mac OS X 10_15_7) AppleWebKit/537.36 (KHTML, like Gecko) Chrome/122.0.0.0 Safari/537.36" version="24.0.2" etag="HNV69DuKueLxop_2URyI" type="github">
  <diagram name="Page-1" id="mPq1Ja8wVqJKLB7diUso">
    <mxGraphModel>
      <root>
        <mxCell id="0" />
        <mxCell id="1" parent="0" />
      </root>
    </mxGraphModel>
  </diagram>
</mxfile>
